<?xml version="1.0" encoding="utf-8"?>
<!-- Generator: Adobe Illustrator 19.2.1, SVG Export Plug-In . SVG Version: 6.00 Build 0)  -->
<svg version="1.1" id="layer" xmlns="http://www.w3.org/2000/svg" xmlns:xlink="http://www.w3.org/1999/xlink" x="0px" y="0px"
	 viewBox="0 0 652 652" style="enable-background:new 0 0 652 652;" xml:space="preserve">
<style type="text/css">
	.st0{clip-path:url(#SVGID_4_);fill:url(#SVGID_5_);}
	.st1{clip-path:url(#SVGID_7_);fill:url(#SVGID_8_);}
	.st2{fill:#FFE29C;}
	.st3{fill:#47474A;}
</style>
<g>
	<defs>
		<path id="SVGID_1_" d="M59.6,261.1c-6.9,1.8-8.4,114.6-4.9,118.6c8.1,1.6,7.5,23.9,7.5,23.9l4.4,1.5c0,0-0.9-11.7,0.4-17.3
			c1.3-5.6,7.9-9,7.9-9C68.5,292,63.5,262,60,261.1H59.6z"/>
	</defs>
	<use xlink:href="#SVGID_1_"  style="overflow:visible;fill:#C2BFBF;"/>
	<clipPath id="SVGID_2_">
		<use xlink:href="#SVGID_1_"  style="overflow:visible;"/>
	</clipPath>
</g>
<g>
	<defs>
		<path id="SVGID_3_" d="M63.9,347.2c0,0-3.4,32.5,5.1,36.4c0,0,38.4-25.3,29.4-77.8c-8.7-38.2-29.1-50.7-31.3-55.5
			c-2.4-3.4-4.9-9.4-4.9-9.4L63.9,347.2z"/>
	</defs>
	<clipPath id="SVGID_4_">
		<use xlink:href="#SVGID_3_"  style="overflow:visible;"/>
	</clipPath>
	
		<linearGradient id="SVGID_5_" gradientUnits="userSpaceOnUse" x1="8.3659" y1="723.5603" x2="12.5354" y2="723.5603" gradientTransform="matrix(8.5332 33.1259 35.6422 -5.7144 -25795.2285 4097.9004)">
		<stop  offset="0" style="stop-color:#49A547"/>
		<stop  offset="1" style="stop-color:#409143"/>
	</linearGradient>
	<polygon class="st0" points="105.6,233.6 142.8,377.9 62.4,390.8 25.2,246.5 	"/>
</g>
<g>
	<defs>
		<path id="SVGID_6_" d="M58.5,248.5c-5,3.9-30.4,25.2-32.5,68.6c-0.1,1.2-0.1,2.4-0.1,3.5c0,41.2,34,64.4,34,64.4
			c2.5-5.8,5.1-34.1,4.2-64.7c-0.2-7.9,0.1-75.1-2.1-79.9C61.9,243.7,61.7,245.1,58.5,248.5"/>
	</defs>
	<clipPath id="SVGID_7_">
		<use xlink:href="#SVGID_6_"  style="overflow:visible;"/>
	</clipPath>
	
		<linearGradient id="SVGID_8_" gradientUnits="userSpaceOnUse" x1="22.2736" y1="745.442" x2="26.4431" y2="745.442" gradientTransform="matrix(14.9349 -3.3934 -4.6669 -13.9447 3167.4082 10788.7773)">
		<stop  offset="0" style="stop-color:#42A347"/>
		<stop  offset="0.329" style="stop-color:#4AA74A"/>
		<stop  offset="0.8484" style="stop-color:#61B251"/>
		<stop  offset="1" style="stop-color:#69B654"/>
	</linearGradient>
	<polygon class="st1" points="-19.1,250.6 62.4,232.1 110.1,374.7 28.7,393.2 	"/>
</g>
<g>
	<path class="st2" d="M478.3,296.8c2.1,0,9.9,0.4,13.5,0.4c6.8,0,11.5-0.4,24.2-0.4c10.6,0,19.6,2.9,26,8.5
		c7.7,6.8,11.9,16.2,11.9,27.7c0,16.3-7.4,25.8-14.8,31.1c-7.4,5.6-16.9,8.7-30.6,8.7c-7.3,0-19.7-0.2-30.1-0.4h-0.1
		c-0.5-1,0.9-4.7,1.7-4.8c2.8-0.3,3.6-0.4,4.9-1c2.2-0.9,2.7-2,3-6c0.4-7.5,0.2-16.5,0.2-26.6c0-7.3,0.1-21.4-0.1-25.9
		c-0.4-3.7-1.9-4.7-5.1-5.4c-1.6-0.4-3.8-0.7-6.8-1.1C475.8,300.8,477.7,297.5,478.3,296.8 M502.4,364.1c2.5,2.1,7.6,2.9,12.1,2.9
		c5.8,0,11.5-1.1,17.1-6.2c5.7-5.2,9.6-13.2,9.6-25.9c0-12.2-4.6-22.1-14-28c-5.3-3.4-12.2-4.7-20.1-4.7c-2.3,0-4.6,0.1-5.9,0.7
		c-0.4,0.2-1.1,1.2-1.1,1.7c-0.2,2.2-0.2,18.8-0.2,28.6c0,10,0,24.1,0.2,25.8C500.1,360.4,500.9,363,502.4,364.1"/>
	<path class="st2" d="M564,296.8c1.1,0,4.3,0.4,12.5,0.4c7.7,0,14-0.2,21.5-0.2c9.3,0,22.1,3.4,22.1,17.4c0,6.9-4.8,12.5-11.1,15.1
		c-0.4,0.1-0.4,0.4,0,0.5c9,2.3,16.8,7.9,16.8,18.5c0,10.4-6.4,16.9-15.7,21.1c-5.7,2.5-12.7,3.4-19.8,3.4c-5.4,0-20-0.6-28.1-0.5
		c-0.9-0.4,0.8-4.2,1.5-4.8c1.9-0.1,3.4-0.3,5.5-0.9c2.9-0.7,3.2-1.7,3.6-6c0.2-3.8,0.2-17.2,0.2-26.7c0-13.1,0.1-21.9,0-26.3
		c-0.1-3.4-1.3-4.5-3.6-5.1c-1.8-0.4-4.8-0.7-7.3-1.1C561.6,300.9,563.4,297.3,564,296.8 M613.4,351.1c0-10.6-7.7-16.7-21.9-16.7
		c-0.6,0-5.1-0.1-6.2,0.1c-0.4,0.1-0.7,0.4-0.7,0.6c0,7.6-0.1,19.8,0.2,24.7c0.2,2.1,1.7,5,3.5,5.8c1.9,1.1,6.3,1.3,9.3,1.3
		C606,367,613.4,362.3,613.4,351.1 M585.9,302.7c-0.5,0.1-1.1,1.3-1.1,1.9c-0.1,4.4-0.2,15.7-0.2,23.6c0,0.2,0.4,0.6,0.6,0.6
		c1.6,0.1,5.4,0.2,8.7,0.2c4.6,0,7.3-0.6,8.7-1.3c3.9-1.9,5.7-6.2,5.7-10.8c0-10.5-7.3-14.5-18-14.5
		C589.5,302.5,587.5,302.5,585.9,302.7"/>
	<path class="st3" d="M131.2,372.7c-0.2-0.3-0.4-1.3-0.4-2.4c0-0.9,0.2-1.4,0.4-1.6c2.3-0.4,3.4-0.6,4.6-1c2.1-0.5,2.9-1.7,3.1-4.5
		c0.4-6.5,0.4-18.8,0.2-27.4v-0.3c0-0.9,0-2.2-1.1-3.1c-1.7-1.1-3.8-2-6.4-2.9c-1-0.3-1.6-0.8-1.5-1.5c0-0.6,0.7-1.4,2-1.6
		c3.5-0.4,12.7-2.6,16.3-4.3c0.2,0.3,0.6,0.8,0.5,1.7c0,0.4-0.1,0.8-0.1,1.2c-0.1,1.2-0.2,2.6-0.2,4c0,0.4,0.4,0.8,0.9,0.8
		c0.2,0,0.5-0.1,0.6-0.3c6.9-5.4,13-7.4,16.2-7.4c5.2,0,9.2,2.5,12.4,7.7c0.2,0.3,0.4,0.4,0.7,0.4c0.3,0,0.5-0.1,0.7-0.4
		c6.3-4.8,12.6-7.7,16.8-7.7c9.9,0,15.8,7.5,15.8,20.1c0,3.6,0,8.2-0.1,12.5c0,3.7-0.1,7.3-0.1,9.7c0,0.6,0.8,2.2,2,2.6
		c1.4,0.7,3.5,1.1,6.2,1.5l0.1,0c0.2,0.7-0.2,3.5-0.6,4.1c-0.7,0-1.6-0.1-2.7-0.1c-2.1-0.1-4.9-0.3-8.2-0.3c-6.6,0-10,0.1-13.3,0.3
		c-0.2-0.8-0.3-3.5,0-4.1c1.9-0.4,2.9-0.6,4-1c2.1-0.7,2.7-1.7,2.8-4.5c0-2,0.4-19.6-0.2-23.8c-0.6-4.3-3.9-9.4-10.9-9.4
		c-2.6,0-6.9,1.1-10.9,4.2c-0.3,0.2-0.4,0.7-0.4,1l0,0.1c0.5,2.3,0.5,4.9,0.5,8.9c0,2.3,0,4.7,0,7.1c0,4.9-0.1,9.4,0,12.9
		c0,2.4,1.4,2.9,2.5,3.4c0.6,0.1,1.1,0.3,1.6,0.4c1,0.2,1.9,0.5,3.4,0.7c0.2,0.5,0.2,1.9-0.1,3c-0.2,0.7-0.3,1-0.4,1
		c-3.7-0.1-7.4-0.2-12.8-0.2c-1.6,0-4.3,0.1-6.7,0.1c-1.9,0.1-3.7,0.1-4.8,0.1c-0.2-0.2-0.4-1-0.4-2.1c0-1,0.2-1.7,0.4-2
		c0.5-0.1,1-0.2,1.5-0.3c1.3-0.2,2.4-0.4,3.4-0.7c1.8-0.6,2.5-1.6,2.6-3.9c0.4-5.4,0.6-20.9-0.1-24.8c-1.3-6.2-4.8-9.4-10.4-9.4
		c-3.3,0-7.5,1.6-10.9,4.2c-0.6,0.4-1,1.5-1,2.5c0,1.8,0,4,0,6.4c0,7.8-0.1,17.5,0.1,21.7c0.1,1.3,0.6,2.8,3,3.4
		c0.5,0.2,1.4,0.3,2.5,0.5c0.6,0.1,1.3,0.2,1.9,0.3c0.2,0.7,0.1,3.3-0.3,4.1c-1.1,0-2.3-0.1-3.8-0.1c-2.3-0.1-5.1-0.2-8.3-0.2
		c-3.8,0-6.4,0.1-8.5,0.2C133.6,372.6,132.4,372.7,131.2,372.7"/>
	<path class="st3" d="M253.1,373.8c-18.2,0-24.7-13.5-24.7-26.1c0-8.8,3.6-15.7,10.6-20.5c5-3.1,11-4.9,16.4-4.9
		c13.9,0,23.6,10.1,23.6,24.5c0,9.8-3.9,17.6-11.2,22.4C264.3,371.4,258.2,373.8,253.1,373.8 M251.2,327.4c-2.2,0-4.3,0.6-5.8,1.6
		c-4.2,2.6-6.3,7.7-6.3,15.3c0,14.2,7,24.1,17.1,24.1c3,0,5.4-0.9,7.4-2.6c3.1-2.6,4.7-7.8,4.7-15.1
		C268.3,336.8,261.4,327.4,251.2,327.4"/>
	<path class="st3" d="M441.4,373.8c-18.2,0-24.7-13.5-24.7-26.1c0-8.8,3.6-15.7,10.6-20.5c5-3.1,11-4.9,16.4-4.9
		c13.9,0,23.6,10.1,23.6,24.5c0,9.8-3.9,17.6-11.2,22.4C452.6,371.4,446.5,373.8,441.4,373.8 M439.5,327.4c-2.2,0-4.3,0.6-5.8,1.6
		c-4.2,2.6-6.3,7.7-6.3,15.3c0,14.2,7,24.1,17.1,24.1c3,0,5.4-0.9,7.4-2.6c3.1-2.6,4.7-7.8,4.7-15.1
		C456.5,336.8,449.7,327.4,439.5,327.4"/>
	<path class="st3" d="M378.6,402.8c-6.5,0-11.2-1.4-15.2-4.5c-3.9-3.1-5.7-7.6-5.7-10.7c0-0.9,0.2-3.2,2.1-5.4
		c1.1-1.3,3.8-3.8,9.9-8c0.2-0.1,0.3-0.3,0.3-0.5c0-0.3-0.2-0.5-0.4-0.5c-5-1.9-6.5-5.1-7-6.9c0-0.1,0-0.2-0.1-0.3
		c-0.1-0.7-0.3-1.3,0.6-2c0.7-0.5,1.8-1.2,3-1.9c1.8-1.1,3.8-2.2,4.9-3.2c0.2-0.2,0.2-0.4,0.2-0.7c0-0.3-0.2-0.5-0.4-0.6
		c-7.4-2.5-11.2-8.1-11.2-16.6c0-5.5,2.5-10.4,6.9-13.6c3-2.4,10.5-5.3,15.3-5.3l0.3,0c5,0.1,7.8,1.2,11.7,2.6
		c2.1,0.8,4.1,1.1,6.9,1.1c4.1,0,5.9-1.3,7.5-2.8c0.1,0.2,0.3,0.8,0.4,2.2c0.1,1.4-0.3,3.5-1.3,5c-0.8,1.2-2.8,2-4.7,2
		c-0.2,0-0.4,0-0.5,0c-1.9-0.2-2.8-0.5-2.8-0.5l-0.5,0.2c-0.1,0.2-0.1,0.5,0.1,0.8c0,0.1,0.1,0.1,0.1,0.2c0.2,1,0.7,3.8,0.7,4.6
		c0,8.9-3.5,12.8-7.2,15.7c-3.6,2.7-7.8,4.4-12.5,4.9h0c-0.1,0-0.5,0-1.4,0.1c-0.6,0.1-1.3,0.1-1.4,0.1l-0.1,0
		c-0.8,0.2-2.9,1.3-2.9,3.2c0,1.6,1,3.5,5.6,3.9c0.9,0.1,1.9,0.1,3,0.2c6.1,0.4,13.7,1,17.2,2.2c4.9,1.8,8,6.3,8,11.6
		c0,8-5.6,15.5-15,20.1C388.3,401.8,383.6,402.8,378.6,402.8 M377.9,374.7c-2.1,0-3.6,0.6-4.5,1.1c-4.4,2.9-6.5,5.7-6.5,9.1
		c0,3.1,1.2,5.6,3.8,7.8c3.1,2.7,7.3,4,12.8,4c10.9,0,15.7-5.9,15.7-11.8c0-4.1-2-6.8-6.2-8.4C389.8,375.4,384.5,374.7,377.9,374.7
		 M378.6,327c-5.6,0-9.2,4.5-9.2,11.4c0,7,3.1,15.2,11.9,15.2c1.5,0,4.2-0.7,5.6-2.2c2-1.9,3.4-5.8,3.4-9.9
		C390.3,332.3,385.9,327,378.6,327"/>
	<path class="st3" d="M349.1,368.2c-2.7-0.4-4.6-0.7-6.9-1.8c-0.4-0.2-0.9-1.3-0.9-1.7c-0.2-3.7-0.2-14.6-0.2-21.8
		c0-5.8-1-10.9-3.4-14.5c-2.9-4.1-7-6.5-12.3-6.5c-4.7,0-11,3.3-16.2,7.7c-0.1,0.1-0.9,0.9-0.9-0.3c0-1.2,0.2-3.6,0.3-5.1
		c0.1-1.5-0.8-2.2-0.8-2.2c-3.4,1.7-12.9,4-16.5,4.4c-2.6,0.5-3.3,3-0.5,3.9v0c0,0,0,0,0,0c2.9,0.9,4.8,1.8,6.2,2.8
		c1.1,0.8,1,2.1,1,3c0.1,8.1,0.1,20.6-0.2,27.3c-0.1,2.7-0.8,3.6-2.8,4.1l0.2-0.1c-1.5,0.4-2.7,0.6-4.5,0.8c-0.6,0.6-0.6,4.1,0,4.8
		c1.2,0,7.4-0.4,12.5-0.4c7,0,10.6,0.4,12.5,0.4c0.7-0.9,1-4.1,0.5-4.8c-2.1-0.1-3.5-0.4-5-0.7c-1.9-0.5-2.4-1.5-2.5-3.6
		c-0.2-5.7-0.2-17.8-0.2-26c0-2.3,0.6-3.4,1.3-4c2.4-2.2,6.4-3.6,9.9-3.6c3.4,0,5.7,1.1,7.4,2.5c2.3,1.9,3.1,4.7,3.4,6.8
		c0.5,4.6,0.4,13.8,0.4,21.8c0,4.4-0.4,5.4-1.9,5.9c-0.7,0.4-2.7,0.7-5,1c-0.7,0.7-0.5,4.1,0,4.8c3.1,0,6.8-0.4,12.1-0.4
		c6.7,0,10.9,0.4,12.6,0.4C349.3,372.2,349.6,369.1,349.1,368.2"/>
</g>
</svg>
