<svg id="svg" version="1.1" xmlns="http://www.w3.org/2000/svg" xmlns:xlink="http://www.w3.org/1999/xlink" width="400" height="356.5323565323565" viewBox="0, 0, 400,356.5323565323565"><g id="svgg"><path id="path0" d="M110.616 31.660 C 109.536 31.728,108.091 32.028,107.404 32.328 C 105.131 33.321,103.305 34.372,103.015 34.852 C 102.858 35.112,102.530 35.326,102.285 35.326 C 101.713 35.326,99.197 37.891,99.197 38.474 C 99.197 38.717,98.950 39.011,98.649 39.127 C 98.347 39.243,97.868 39.840,97.585 40.454 C 97.302 41.068,96.912 41.811,96.719 42.105 C 96.154 42.965,94.915 45.949,94.913 46.457 C 94.912 46.713,94.677 47.371,94.391 47.919 C 94.105 48.467,93.764 49.510,93.633 50.238 C 93.502 50.966,93.260 51.732,93.095 51.942 C 92.930 52.151,92.616 53.917,92.396 55.867 C 92.176 57.816,91.813 59.790,91.590 60.253 C 91.065 61.344,91.078 82.912,91.605 83.578 C 91.803 83.828,92.170 86.561,92.421 89.652 C 92.671 92.743,92.993 95.272,93.136 95.272 C 93.279 95.272,93.510 96.436,93.651 97.859 C 93.791 99.282,94.033 100.607,94.190 100.803 C 94.346 100.999,94.672 102.605,94.915 104.371 C 95.158 106.137,95.483 107.743,95.638 107.939 C 95.792 108.136,96.031 109.046,96.167 109.963 C 96.592 112.818,97.489 113.334,101.070 112.787 C 102.689 112.539,104.175 112.216,104.371 112.069 C 104.567 111.921,106.334 111.599,108.296 111.352 C 110.259 111.106,112.025 110.780,112.221 110.629 C 112.417 110.478,114.425 110.150,116.682 109.902 C 118.938 109.653,120.946 109.329,121.142 109.180 C 121.338 109.032,122.864 108.795,124.532 108.653 C 126.200 108.511,127.725 108.269,127.921 108.115 C 128.118 107.961,130.687 107.643,133.631 107.410 C 136.574 107.177,139.304 106.849,139.697 106.681 C 140.089 106.513,141.484 106.319,142.796 106.250 C 145.023 106.133,145.261 106.037,146.365 104.815 C 147.797 103.229,150.223 100.056,150.223 99.770 C 150.223 99.548,150.276 99.480,153.049 96.091 C 154.046 94.873,154.862 93.774,154.862 93.650 C 154.862 93.525,155.584 92.578,156.467 91.544 C 157.351 90.510,158.073 89.556,158.073 89.423 C 158.073 89.291,158.555 88.711,159.144 88.136 C 159.732 87.560,160.214 86.981,160.214 86.849 C 160.214 86.717,161.097 85.603,162.177 84.374 C 163.256 83.144,164.139 81.996,164.139 81.822 C 164.139 81.647,164.760 80.934,165.518 80.237 C 166.277 79.540,166.959 78.794,167.035 78.581 C 167.110 78.367,168.657 76.589,170.473 74.629 C 172.288 72.670,173.773 70.939,173.773 70.783 C 173.773 70.627,174.456 69.800,175.290 68.945 L 176.806 67.391 172.881 63.683 C 170.723 61.644,168.814 59.969,168.640 59.961 C 168.467 59.953,167.980 59.585,167.558 59.144 C 166.467 58.000,160.278 52.810,160.006 52.810 C 159.880 52.810,159.011 52.168,158.073 51.383 C 157.136 50.598,156.198 49.955,155.990 49.955 C 155.781 49.955,155.482 49.755,155.325 49.509 C 155.169 49.264,154.787 48.903,154.479 48.707 C 154.170 48.510,152.526 47.426,150.825 46.298 C 149.124 45.169,147.658 44.246,147.568 44.246 C 147.478 44.246,146.714 43.805,145.870 43.265 C 143.124 41.509,142.926 41.391,141.481 40.664 C 140.696 40.270,139.652 39.720,139.161 39.442 C 136.883 38.155,130.648 35.372,129.527 35.142 C 128.840 35.002,128.118 34.765,127.921 34.617 C 127.725 34.470,126.721 34.151,125.690 33.909 C 124.659 33.668,123.733 33.337,123.633 33.174 C 123.532 33.011,122.529 32.766,121.404 32.630 C 120.278 32.494,119.197 32.264,119.001 32.119 C 118.554 31.788,113.232 31.497,110.616 31.660 " stroke="none" fill="#ec1c24" fill-rule="evenodd"></path><path id="path1" d="M254.237 17.151 C 236.713 18.966,213.416 31.981,191.497 52.201 L 186.920 56.424 185.549 55.241 C 184.796 54.591,182.223 52.300,179.833 50.150 C 143.960 17.879,107.163 8.207,90.014 26.539 C 78.926 38.392,74.311 61.991,77.723 89.384 C 78.685 97.105,79.723 102.996,81.874 112.935 C 82.763 117.046,83.431 116.416,75.647 118.810 C 23.343 134.896,-3.452 165.413,11.332 192.059 C 21.390 210.186,50.811 229.378,80.107 236.920 C 82.869 237.632,82.822 236.459,80.513 247.101 C 75.915 268.286,75.369 290.055,79.059 305.085 C 85.534 331.460,103.409 341.725,129.706 334.169 C 147.242 329.131,168.385 315.920,185.263 299.455 L 187.297 297.470 191.329 301.208 C 229.640 336.723,266.030 346.605,283.795 326.317 C 288.615 320.812,291.629 314.639,294.510 304.371 C 298.541 290.001,297.800 263.829,292.743 241.927 C 292.222 239.670,291.775 237.609,291.750 237.347 C 291.719 237.032,294.184 236.050,299.019 234.450 C 303.042 233.119,308.501 231.108,311.151 229.982 C 313.800 228.855,316.736 227.628,317.675 227.255 C 333.688 220.892,351.702 207.362,359.901 195.540 C 379.002 167.995,353.002 136.338,296.878 118.801 C 290.176 116.707,290.750 117.275,291.578 113.565 C 296.932 89.566,297.967 65.502,294.313 49.955 C 288.673 25.959,275.252 14.974,254.237 17.151 M117.392 31.787 C 119.647 31.998,121.574 32.289,121.674 32.432 C 121.774 32.576,122.819 32.902,123.996 33.157 C 125.174 33.412,126.298 33.749,126.494 33.906 C 126.690 34.063,127.453 34.304,128.189 34.441 C 128.925 34.579,129.527 34.816,129.527 34.969 C 129.527 35.121,130.091 35.352,130.781 35.481 C 131.470 35.611,132.818 36.110,133.776 36.592 C 134.734 37.073,135.696 37.467,135.913 37.467 C 136.129 37.467,136.307 37.620,136.307 37.807 C 136.307 37.995,136.869 38.253,137.556 38.382 C 138.243 38.511,138.805 38.740,138.805 38.892 C 138.805 39.043,139.086 39.262,139.429 39.378 C 139.773 39.493,140.856 40.069,141.838 40.656 C 143.426 41.607,144.248 42.058,147.279 43.640 C 147.721 43.870,148.082 44.179,148.082 44.326 C 148.082 44.473,148.604 44.842,149.242 45.146 C 151.414 46.182,152.364 46.782,152.364 47.120 C 152.364 47.306,152.538 47.458,152.750 47.458 C 152.962 47.458,153.822 48.020,154.660 48.707 C 155.498 49.393,156.299 49.955,156.439 49.955 C 156.579 49.955,157.606 50.684,158.722 51.574 C 159.837 52.464,161.123 53.467,161.579 53.804 C 162.036 54.140,163.754 55.580,165.397 57.003 C 167.040 58.426,168.487 59.590,168.612 59.590 C 168.737 59.590,169.688 60.473,170.725 61.552 C 171.762 62.632,172.758 63.515,172.937 63.515 C 173.116 63.515,174.129 64.392,175.188 65.464 L 177.113 67.414 175.205 69.478 C 174.156 70.614,172.521 72.383,171.573 73.410 C 170.624 74.436,169.848 75.379,169.848 75.504 C 169.848 75.629,168.564 77.138,166.994 78.858 C 165.424 80.578,164.139 82.108,164.139 82.257 C 164.139 82.407,163.811 82.868,163.411 83.281 C 162.066 84.667,158.430 89.130,158.430 89.393 C 158.430 89.537,157.306 90.978,155.932 92.596 C 154.558 94.214,153.434 95.657,153.434 95.802 C 153.434 95.946,152.792 96.832,152.007 97.770 C 151.222 98.707,150.580 99.636,150.580 99.833 C 150.580 100.030,150.339 100.284,150.045 100.397 C 149.750 100.510,149.509 100.835,149.509 101.121 C 149.509 101.406,148.426 102.755,147.101 104.118 L 144.692 106.596 140.232 106.856 C 137.779 106.999,135.611 107.235,135.415 107.381 C 135.219 107.526,132.810 107.851,130.062 108.101 C 127.315 108.352,124.906 108.676,124.710 108.821 C 124.514 108.965,122.426 109.283,120.071 109.526 C 117.716 109.769,115.629 110.088,115.433 110.235 C 115.236 110.381,113.470 110.703,111.508 110.949 C 109.545 111.196,107.779 111.521,107.583 111.672 C 107.386 111.822,106.273 112.053,105.108 112.183 C 103.944 112.314,102.820 112.562,102.610 112.733 C 100.722 114.280,96.343 113.146,96.343 111.110 C 96.343 110.665,96.193 110.209,96.011 110.096 C 95.828 109.983,95.568 108.970,95.431 107.845 C 95.295 106.719,95.062 105.638,94.914 105.442 C 94.765 105.245,94.444 103.640,94.202 101.873 C 93.959 100.107,93.636 98.501,93.484 98.305 C 93.331 98.109,93.017 95.861,92.784 93.310 C 92.551 90.758,92.220 88.403,92.047 88.075 C 90.969 86.027,90.938 58.002,92.012 56.581 C 92.171 56.371,92.502 54.835,92.747 53.167 C 92.993 51.499,93.325 49.973,93.484 49.777 C 93.644 49.581,93.959 48.698,94.184 47.814 C 94.825 45.295,96.665 41.477,98.173 39.539 C 98.736 38.815,99.197 38.119,99.197 37.992 C 99.197 37.583,101.482 35.326,101.897 35.326 C 102.117 35.326,102.600 34.992,102.969 34.584 C 104.173 33.254,107.409 31.954,110.080 31.728 C 111.454 31.611,112.739 31.491,112.935 31.459 C 113.131 31.428,115.137 31.576,117.392 31.787 M266.123 32.738 C 267.165 33.123,268.512 33.823,269.116 34.293 C 269.720 34.763,270.634 35.400,271.146 35.710 C 271.659 36.019,272.239 36.589,272.435 36.976 C 272.632 37.363,273.288 38.314,273.893 39.090 C 276.358 42.246,278.889 48.486,279.603 53.167 C 279.737 54.050,279.968 54.933,280.116 55.129 C 280.503 55.645,281.178 63.176,281.178 66.992 C 281.178 68.785,281.338 70.352,281.534 70.473 C 281.731 70.594,281.891 72.039,281.891 73.684 C 281.891 75.329,281.731 76.774,281.534 76.896 C 281.338 77.017,281.178 78.426,281.178 80.027 C 281.178 83.835,280.452 92.853,280.110 93.310 C 279.962 93.506,279.731 94.871,279.595 96.343 C 279.460 97.814,279.130 99.902,278.861 100.981 C 278.593 102.061,278.262 103.907,278.126 105.085 C 277.990 106.262,277.758 107.386,277.612 107.583 C 277.466 107.779,277.148 109.018,276.905 110.336 C 276.415 112.988,275.789 113.842,274.788 113.217 C 274.446 113.003,272.894 112.629,271.338 112.385 C 269.783 112.141,268.343 111.811,268.138 111.653 C 267.934 111.495,266.248 111.187,264.392 110.969 C 262.536 110.752,260.754 110.433,260.433 110.260 C 260.112 110.088,258.827 109.835,257.578 109.699 C 256.330 109.563,255.138 109.319,254.931 109.156 C 254.724 108.993,252.637 108.682,250.292 108.466 C 247.948 108.249,245.776 107.937,245.464 107.772 C 245.153 107.606,242.423 107.271,239.398 107.027 C 236.373 106.783,233.746 106.447,233.559 106.280 C 233.373 106.113,232.249 105.974,231.062 105.972 C 228.717 105.966,227.409 105.479,226.797 104.384 C 226.581 103.998,225.562 102.601,224.532 101.280 C 223.501 99.959,222.658 98.785,222.658 98.670 C 222.658 98.395,220.041 94.938,219.110 93.986 C 218.707 93.572,218.376 93.103,218.376 92.943 C 218.376 92.782,217.574 91.728,216.592 90.600 C 215.611 89.472,214.808 88.435,214.808 88.297 C 214.808 88.158,213.644 86.682,212.221 85.018 C 210.798 83.353,209.474 81.728,209.277 81.406 C 209.081 81.084,207.756 79.513,206.334 77.914 C 204.911 76.315,203.747 74.908,203.747 74.787 C 203.747 74.666,202.944 73.768,201.963 72.792 C 200.981 71.816,200.178 70.901,200.178 70.759 C 200.178 70.616,199.496 69.802,198.662 68.950 L 197.145 67.400 198.930 65.752 C 199.911 64.846,201.752 63.128,203.020 61.936 C 204.289 60.744,205.598 59.607,205.929 59.411 C 206.476 59.086,210.384 55.784,212.724 53.668 C 213.246 53.196,213.786 52.810,213.924 52.810 C 214.061 52.810,214.919 52.195,215.829 51.443 C 216.740 50.691,217.765 49.973,218.109 49.848 C 218.452 49.723,218.733 49.455,218.733 49.253 C 218.733 49.051,218.907 48.885,219.119 48.885 C 219.332 48.885,220.191 48.323,221.029 47.636 C 221.868 46.949,222.668 46.387,222.808 46.387 C 222.948 46.387,223.574 46.002,224.199 45.531 C 224.823 45.060,225.897 44.359,226.583 43.974 C 227.270 43.588,228.823 42.689,230.033 41.976 C 231.244 41.262,232.408 40.678,232.620 40.678 C 232.833 40.678,233.006 40.550,233.006 40.394 C 233.006 40.051,239.473 36.758,240.179 36.742 C 240.453 36.735,240.990 36.494,241.371 36.206 C 241.752 35.918,242.282 35.682,242.550 35.682 C 242.818 35.682,243.710 35.376,244.533 35.001 C 245.357 34.626,246.673 34.202,247.458 34.058 C 248.243 33.913,248.965 33.675,249.063 33.528 C 250.096 31.977,262.515 31.402,266.123 32.738 M190.799 82.869 C 198.287 91.355,207.880 103.447,207.420 103.819 C 207.264 103.945,204.969 103.936,202.319 103.800 C 196.108 103.482,177.487 103.482,171.276 103.800 C 168.626 103.936,166.318 103.932,166.147 103.790 C 165.459 103.224,186.235 78.222,187.000 78.695 C 187.140 78.781,188.850 80.660,190.799 82.869 M213.368 119.679 C 216.795 119.950,219.647 120.310,219.705 120.478 C 219.762 120.647,221.133 122.802,222.751 125.268 C 230.475 137.042,234.744 144.106,241.850 156.877 C 243.582 159.988,245.935 164.380,247.081 166.637 C 248.227 168.894,249.784 171.898,250.541 173.313 C 251.298 174.728,251.918 176.192,251.918 176.568 C 251.918 177.599,246.273 188.533,238.069 203.390 C 236.519 206.198,228.109 220.221,226.085 223.372 C 225.014 225.040,223.320 227.690,222.320 229.260 C 219.177 234.195,221.148 233.579,206.423 234.229 C 188.937 235.001,176.316 234.910,158.189 233.879 L 154.201 233.653 149.220 226.104 C 140.018 212.161,124.393 184.584,121.656 177.457 C 121.017 175.792,136.931 146.320,146.092 132.203 C 154.058 119.928,153.768 120.314,155.164 120.109 C 156.432 119.923,166.601 119.270,171.989 119.029 C 178.077 118.757,207.554 119.220,213.368 119.679 M130.481 128.204 C 126.717 134.216,119.190 147.311,115.619 154.061 C 114.347 156.464,113.223 158.428,113.121 158.425 C 112.440 158.408,101.428 127.942,101.983 127.613 C 102.257 127.452,109.348 126.039,115.433 124.934 C 125.395 123.125,133.555 122.038,133.754 122.494 C 133.823 122.650,132.349 125.219,130.481 128.204 M252.632 124.130 C 259.251 125.207,262.890 125.884,267.317 126.863 C 269.505 127.347,271.351 127.743,271.419 127.743 C 271.810 127.743,271.330 129.550,269.534 134.844 C 266.134 144.866,260.887 158.067,260.303 158.066 C 260.107 158.066,258.128 154.714,255.905 150.616 C 252.272 143.920,245.545 132.409,241.088 125.262 C 240.176 123.799,239.429 122.504,239.429 122.383 C 239.429 122.154,245.081 122.902,252.632 124.130 M87.223 131.748 C 87.529 132.184,87.779 132.897,87.779 133.332 C 87.779 133.768,87.912 134.206,88.075 134.307 C 88.238 134.408,88.570 135.378,88.813 136.463 C 89.056 137.548,89.390 138.520,89.556 138.622 C 89.722 138.725,89.966 139.449,90.098 140.232 C 90.230 141.015,90.467 141.735,90.624 141.832 C 90.781 141.929,91.020 142.612,91.155 143.350 C 91.289 144.088,91.598 145.013,91.840 145.406 C 92.082 145.798,92.480 146.842,92.724 147.725 C 92.968 148.608,93.422 149.893,93.733 150.580 C 95.052 153.496,95.260 154.023,95.495 155.040 C 95.631 155.629,95.941 156.432,96.186 156.824 C 96.430 157.217,96.738 158.060,96.871 158.698 C 97.004 159.335,97.261 159.857,97.441 159.857 C 97.622 159.857,97.770 160.128,97.770 160.458 C 97.770 161.064,98.677 163.257,99.883 165.566 C 100.242 166.253,100.648 167.337,100.786 167.975 C 100.925 168.613,101.173 169.135,101.338 169.135 C 101.503 169.135,101.742 169.608,101.869 170.187 C 101.996 170.765,102.651 172.357,103.325 173.724 C 104.957 177.037,105.074 176.216,102.023 182.872 C 101.484 184.050,100.836 185.616,100.583 186.351 C 100.331 187.087,99.996 187.690,99.839 187.690 C 99.682 187.690,99.554 187.946,99.554 188.260 C 99.554 188.574,99.292 189.417,98.971 190.133 C 97.741 192.886,97.134 194.335,96.708 195.540 C 96.260 196.807,95.695 198.170,94.749 200.268 C 94.462 200.905,94.115 201.909,93.979 202.498 C 93.843 203.087,93.532 203.889,93.288 204.282 C 93.044 204.674,92.730 205.558,92.590 206.244 C 92.450 206.931,92.205 207.656,92.046 207.855 C 91.887 208.054,91.565 208.977,91.331 209.907 C 91.097 210.836,90.782 211.597,90.631 211.597 C 90.480 211.597,90.243 212.199,90.106 212.935 C 89.968 213.671,89.731 214.434,89.578 214.630 C 89.425 214.826,89.104 215.870,88.865 216.949 C 88.625 218.029,88.203 219.418,87.926 220.036 C 87.649 220.655,87.422 221.398,87.422 221.687 C 87.422 222.818,85.230 223.596,84.567 222.700 C 84.469 222.568,83.024 222.081,81.356 221.619 C 79.688 221.157,77.997 220.579,77.598 220.335 C 77.200 220.090,75.956 219.684,74.833 219.433 C 73.711 219.182,72.792 218.862,72.792 218.721 C 72.792 218.581,72.310 218.369,71.722 218.252 C 71.133 218.134,69.937 217.712,69.065 217.315 C 68.193 216.917,67.229 216.592,66.924 216.592 C 66.619 216.592,66.369 216.457,66.369 216.293 C 66.369 216.128,65.727 215.781,64.942 215.522 C 64.157 215.263,63.515 214.916,63.515 214.751 C 63.515 214.586,63.233 214.451,62.888 214.451 C 62.169 214.451,52.803 209.785,50.134 208.096 C 49.153 207.476,47.948 206.770,47.458 206.529 C 46.967 206.288,46.069 205.723,45.461 205.275 C 44.854 204.827,44.172 204.460,43.945 204.460 C 43.718 204.460,43.533 204.295,43.533 204.092 C 43.533 203.890,43.252 203.624,42.908 203.502 C 42.565 203.380,41.614 202.742,40.796 202.086 C 39.978 201.429,39.202 200.892,39.071 200.892 C 38.270 200.892,26.762 189.327,26.762 188.522 C 26.762 188.396,26.393 187.795,25.942 187.188 C 20.184 179.439,21.184 170.537,28.769 161.998 C 31.890 158.485,33.336 157.003,33.643 157.003 C 33.838 157.003,34.176 156.788,34.394 156.526 C 34.938 155.870,40.212 151.650,40.487 151.650 C 40.609 151.650,41.559 151.008,42.599 150.223 C 43.639 149.438,44.611 148.796,44.759 148.796 C 44.907 148.796,45.526 148.434,46.135 147.993 C 47.457 147.034,48.279 146.597,55.576 142.970 C 63.015 139.273,63.876 138.876,65.031 138.602 C 65.571 138.475,66.012 138.247,66.012 138.097 C 66.012 137.946,66.494 137.727,67.083 137.609 C 67.672 137.492,68.841 137.082,69.682 136.699 C 70.523 136.316,71.687 135.888,72.269 135.749 C 72.851 135.609,73.488 135.375,73.684 135.228 C 73.880 135.082,74.574 134.848,75.225 134.709 C 75.876 134.569,76.839 134.231,77.366 133.956 C 77.892 133.681,78.885 133.354,79.572 133.229 C 80.259 133.104,80.981 132.883,81.178 132.738 C 81.374 132.593,82.417 132.263,83.497 132.006 C 84.576 131.748,85.612 131.407,85.798 131.246 C 86.329 130.789,86.625 130.894,87.223 131.748 M292.417 132.889 C 292.810 133.040,293.613 133.324,294.202 133.522 C 294.790 133.719,295.593 134.006,295.986 134.160 C 296.378 134.313,297.904 134.872,299.376 135.402 C 300.847 135.932,302.373 136.496,302.765 136.657 C 303.158 136.817,304.041 137.140,304.728 137.373 C 305.415 137.606,306.378 138.002,306.869 138.253 C 307.360 138.503,308.241 138.822,308.828 138.963 C 309.415 139.103,309.977 139.326,310.077 139.457 C 310.346 139.811,312.577 140.946,313.002 140.946 C 313.503 140.946,319.948 144.109,321.528 145.130 C 322.875 146.001,324.733 147.026,327.832 148.606 C 328.863 149.131,329.706 149.710,329.706 149.892 C 329.706 150.074,329.912 150.223,330.165 150.223 C 330.418 150.223,331.181 150.698,331.860 151.279 C 332.540 151.860,333.283 152.341,333.512 152.349 C 333.741 152.357,333.982 152.484,334.047 152.632 C 334.112 152.779,335.129 153.674,336.307 154.620 C 342.980 159.984,350.045 168.509,350.045 171.198 C 350.045 171.377,350.306 172.047,350.626 172.688 C 351.288 174.015,351.189 180.157,350.486 181.445 C 350.271 181.838,349.739 182.962,349.303 183.943 C 348.867 184.924,348.133 186.238,347.672 186.863 C 347.211 187.488,346.833 188.090,346.833 188.201 C 346.833 188.811,337.902 198.037,337.311 198.037 C 337.056 198.037,336.648 198.359,336.402 198.751 C 336.157 199.144,335.817 199.465,335.646 199.465 C 335.475 199.465,334.568 200.107,333.631 200.892 C 332.693 201.677,331.818 202.319,331.686 202.319 C 331.555 202.319,330.711 202.881,329.811 203.568 C 328.912 204.255,328.028 204.817,327.846 204.817 C 327.665 204.817,327.006 205.203,326.381 205.675 C 324.912 206.784,321.018 208.898,315.433 211.619 C 308.335 215.076,307.360 215.522,306.888 215.522 C 306.644 215.522,306.018 215.738,305.497 216.003 C 303.395 217.070,301.999 217.650,300.981 217.877 C 300.393 218.009,299.509 218.325,299.019 218.579 C 297.839 219.191,292.734 220.874,292.058 220.874 C 291.765 220.874,291.525 221.007,291.525 221.170 C 291.525 221.424,288.480 222.302,287.599 222.302 C 287.197 222.302,286.294 220.460,285.983 219.004 C 285.846 218.365,285.615 217.681,285.470 217.484 C 285.324 217.288,285.010 216.327,284.771 215.348 C 284.532 214.370,284.208 213.406,284.052 213.207 C 283.896 213.008,283.576 212.203,283.340 211.418 C 282.900 209.953,282.534 209.004,281.688 207.136 C 281.421 206.548,281.095 205.584,280.963 204.996 C 280.831 204.407,280.519 203.524,280.269 203.033 C 280.018 202.542,279.622 201.579,279.387 200.892 C 278.925 199.541,278.168 197.740,277.387 196.135 C 277.117 195.580,276.896 194.955,276.896 194.747 C 276.896 194.539,276.557 193.629,276.143 192.724 C 275.729 191.820,275.107 190.437,274.760 189.652 C 274.413 188.867,273.627 187.181,273.014 185.905 C 272.401 184.630,271.900 183.452,271.900 183.289 C 271.900 183.125,271.258 181.695,270.473 180.110 C 268.648 176.427,268.649 176.417,270.844 172.275 C 271.229 171.550,271.543 170.774,271.543 170.553 C 271.543 170.331,272.105 168.981,272.792 167.553 C 273.479 166.125,274.041 164.842,274.041 164.703 C 274.041 164.564,274.442 163.573,274.933 162.500 C 275.424 161.427,275.825 160.407,275.825 160.232 C 275.825 160.058,276.052 159.461,276.329 158.905 C 276.607 158.349,277.067 157.333,277.352 156.646 C 277.637 155.959,278.120 154.835,278.426 154.148 C 278.732 153.461,279.176 152.257,279.413 151.472 C 279.650 150.687,279.954 149.884,280.089 149.688 C 280.225 149.492,280.554 148.608,280.821 147.725 C 281.088 146.842,281.419 145.959,281.557 145.763 C 281.696 145.566,281.926 144.844,282.070 144.157 C 282.213 143.470,282.461 142.745,282.620 142.547 C 282.779 142.348,283.108 141.384,283.351 140.406 C 283.594 139.427,283.992 138.305,284.235 137.913 C 284.478 137.520,284.787 136.517,284.921 135.684 C 285.055 134.851,285.311 134.079,285.490 133.968 C 285.670 133.858,285.816 133.508,285.816 133.192 C 285.816 131.393,288.216 131.283,292.417 132.889 M184.300 144.393 C 151.617 147.663,143.469 191.100,172.862 205.367 C 201.409 219.223,230.175 187.244,213.958 159.679 C 208.210 149.909,195.361 143.287,184.300 144.393 M261.716 197.235 C 266.858 209.574,267.303 210.726,270.459 219.892 L 272.517 225.868 271.196 226.224 C 265.645 227.719,239.429 232.015,239.429 231.430 C 239.429 231.311,241.827 227.216,244.758 222.330 C 249.506 214.413,256.571 201.863,259.188 196.699 C 260.396 194.314,260.508 194.338,261.716 197.235 M116.652 201.446 C 120.588 208.737,126.899 219.634,130.975 226.173 C 134.500 231.829,134.597 232.077,133.185 231.801 C 132.645 231.695,131.079 231.507,129.706 231.383 C 126.969 231.136,115.223 229.375,110.972 228.574 C 103.307 227.131,101.695 226.763,101.695 226.457 C 101.695 225.573,106.518 211.610,109.108 204.996 C 112.286 196.881,112.883 195.522,113.223 195.636 C 113.419 195.701,114.962 198.316,116.652 201.446 M277.299 241.481 C 277.511 242.021,277.869 243.506,278.095 244.781 C 278.321 246.057,278.609 247.261,278.735 247.458 C 278.862 247.654,279.168 249.420,279.415 251.383 C 279.662 253.345,279.991 255.118,280.145 255.321 C 280.300 255.525,280.611 257.854,280.838 260.495 C 281.064 263.137,281.434 265.684,281.660 266.156 C 282.207 267.301,282.241 291.435,281.695 291.806 C 281.489 291.946,281.130 293.808,280.898 295.943 C 280.665 298.078,280.334 300.005,280.163 300.225 C 279.992 300.445,279.657 301.650,279.417 302.904 C 279.177 304.157,278.844 305.442,278.676 305.758 C 278.507 306.075,277.525 308.099,276.492 310.257 C 274.328 314.778,271.042 318.474,267.601 320.255 C 264.651 321.783,251.536 321.925,249.599 320.450 C 249.402 320.300,248.238 319.972,247.012 319.719 C 245.785 319.467,244.781 319.122,244.781 318.952 C 244.781 318.783,244.525 318.644,244.211 318.644 C 242.433 318.644,227.434 310.777,223.677 307.874 C 222.962 307.321,222.250 306.869,222.094 306.869 C 221.938 306.869,220.891 306.146,219.767 305.263 C 218.643 304.380,217.621 303.657,217.495 303.657 C 217.308 303.657,215.292 302.099,211.609 299.109 C 211.308 298.864,209.562 297.339,207.730 295.719 C 205.898 294.100,204.116 292.611,203.771 292.412 C 203.425 292.213,201.900 290.807,200.381 289.288 L 197.620 286.527 200.951 282.871 C 202.783 280.860,204.402 279.161,204.550 279.096 C 204.697 279.031,204.817 278.809,204.817 278.603 C 204.817 278.398,205.821 277.053,207.047 275.614 C 208.274 274.176,209.550 272.631,209.883 272.182 C 210.217 271.733,211.461 270.217,212.649 268.815 C 213.836 267.412,214.808 266.159,214.808 266.030 C 214.808 265.736,218.816 260.702,219.179 260.541 C 219.326 260.476,219.453 260.235,219.461 260.006 C 219.469 259.777,219.951 259.034,220.532 258.354 C 221.113 257.675,221.588 256.912,221.588 256.659 C 221.588 256.407,221.726 256.200,221.894 256.200 C 222.152 256.200,224.021 253.698,225.335 251.597 C 226.990 248.949,228.078 247.993,229.441 247.993 C 230.201 247.993,230.911 247.850,231.019 247.676 C 231.127 247.501,233.145 247.243,235.504 247.101 C 237.863 246.959,239.881 246.700,239.989 246.526 C 240.097 246.351,240.907 246.209,241.790 246.209 C 244.018 246.209,250.161 245.493,251.026 245.133 C 251.418 244.969,253.586 244.641,255.843 244.404 C 258.100 244.166,260.107 243.875,260.303 243.756 C 260.500 243.638,262.105 243.282,263.872 242.965 C 271.518 241.596,272.445 241.405,272.617 241.166 C 272.785 240.933,274.151 240.694,276.102 240.557 C 276.683 240.516,277.023 240.778,277.299 241.481 M100.803 241.780 C 101.784 241.910,102.748 242.136,102.944 242.282 C 103.140 242.427,104.906 242.754,106.869 243.009 C 108.831 243.263,110.598 243.584,110.794 243.722 C 110.990 243.860,112.997 244.181,115.254 244.435 C 117.511 244.688,119.518 245.013,119.715 245.156 C 119.911 245.299,121.436 245.523,123.104 245.654 C 124.773 245.785,127.422 246.118,128.992 246.392 C 130.562 246.667,133.658 247.002,135.872 247.137 C 138.085 247.272,139.982 247.520,140.085 247.688 C 140.189 247.855,141.456 247.993,142.901 247.993 L 145.529 247.993 146.982 249.688 C 147.781 250.620,148.435 251.506,148.437 251.656 C 148.438 251.806,149.401 253.171,150.577 254.689 C 151.752 256.207,153.479 258.454,154.413 259.682 C 155.346 260.911,156.384 262.276,156.719 262.715 C 157.054 263.155,158.298 264.662,159.484 266.065 C 160.671 267.468,161.641 268.725,161.641 268.859 C 161.641 269.102,165.426 273.604,167.380 275.685 C 167.953 276.294,168.421 276.918,168.421 277.070 C 168.421 277.222,170.268 279.315,172.525 281.720 C 174.781 284.126,176.628 286.255,176.628 286.451 C 176.628 287.130,165.379 297.591,164.649 297.591 C 164.419 297.591,160.449 300.792,159.114 302.053 C 158.803 302.347,158.381 302.587,158.176 302.587 C 157.971 302.587,157.607 302.824,157.367 303.113 C 156.989 303.568,151.404 307.438,150.401 307.939 C 150.205 308.037,149.322 308.593,148.439 309.175 C 145.502 311.108,134.818 316.555,132.560 317.270 C 131.775 317.519,130.953 317.852,130.734 318.010 C 130.514 318.168,128.989 318.695,127.344 319.183 C 125.699 319.670,124.032 320.218,123.640 320.400 C 120.597 321.813,107.805 321.723,105.977 320.276 C 105.682 320.043,105.040 319.662,104.550 319.429 C 101.721 318.088,97.141 312.857,96.477 310.210 C 96.360 309.746,96.140 309.367,95.987 309.367 C 95.834 309.367,95.609 308.845,95.488 308.207 C 95.367 307.569,95.045 306.620,94.772 306.098 C 94.500 305.575,94.081 303.970,93.841 302.529 C 93.602 301.089,93.274 299.746,93.112 299.544 C 92.951 299.342,92.707 297.897,92.571 296.333 C 92.435 294.768,92.144 293.263,91.924 292.987 C 91.371 292.292,91.381 269.825,91.935 269.473 C 92.152 269.335,92.443 267.469,92.587 265.299 C 92.730 263.140,92.968 261.213,93.115 261.017 C 93.262 260.821,93.581 258.974,93.823 256.913 C 94.065 254.853,94.384 253.006,94.531 252.810 C 94.678 252.614,94.999 251.088,95.245 249.420 C 95.491 247.752,95.817 246.227,95.970 246.030 C 96.123 245.834,96.359 244.800,96.495 243.731 C 96.806 241.290,96.912 241.130,98.071 241.357 C 98.592 241.459,99.822 241.650,100.803 241.780 M207.793 250.248 C 206.324 252.747,192.861 269.460,189.117 273.431 L 187.154 275.513 182.516 270.263 C 177.257 264.312,169.662 255.013,166.308 250.418 C 165.808 249.733,165.938 249.726,175.942 249.937 C 181.520 250.055,190.901 250.023,196.789 249.867 C 208.021 249.569,208.188 249.575,207.793 250.248 " stroke="none" fill="#54c4dc" fill-rule="evenodd"></path><path id="path2" d="M119.143 32.221 C 119.309 32.387,119.988 32.467,120.650 32.399 C 121.826 32.278,121.818 32.270,120.348 32.097 C 119.519 31.999,118.977 32.055,119.143 32.221 M252.810 32.521 C 250.847 32.927,249.161 33.380,249.063 33.528 C 248.965 33.675,248.243 33.913,247.458 34.058 C 246.673 34.202,245.357 34.626,244.533 35.001 C 243.710 35.376,242.818 35.682,242.550 35.682 C 242.282 35.682,241.752 35.918,241.371 36.206 C 240.990 36.494,240.453 36.735,240.179 36.742 C 239.473 36.758,233.006 40.051,233.006 40.394 C 233.006 40.550,232.833 40.678,232.620 40.678 C 232.408 40.678,231.244 41.262,230.033 41.976 C 228.823 42.689,227.270 43.588,226.583 43.974 C 225.897 44.359,224.823 45.060,224.199 45.531 C 223.574 46.002,222.948 46.387,222.808 46.387 C 222.668 46.387,221.868 46.949,221.029 47.636 C 220.191 48.323,219.332 48.885,219.119 48.885 C 218.907 48.885,218.733 49.051,218.733 49.253 C 218.733 49.455,218.452 49.723,218.109 49.848 C 217.765 49.973,216.740 50.691,215.829 51.443 C 214.919 52.195,214.061 52.810,213.924 52.810 C 213.786 52.810,213.246 53.196,212.724 53.668 C 210.384 55.784,206.476 59.086,205.929 59.411 C 205.598 59.607,204.289 60.744,203.020 61.936 C 201.752 63.128,199.911 64.846,198.930 65.752 L 197.145 67.400 198.662 68.950 C 199.496 69.802,200.178 70.616,200.178 70.759 C 200.178 70.901,200.981 71.816,201.963 72.792 C 202.944 73.768,203.747 74.666,203.747 74.787 C 203.747 74.908,204.911 76.315,206.334 77.914 C 207.756 79.513,209.081 81.084,209.277 81.406 C 209.474 81.728,210.798 83.353,212.221 85.018 C 213.644 86.682,214.808 88.158,214.808 88.297 C 214.808 88.435,215.611 89.472,216.592 90.600 C 217.574 91.728,218.376 92.782,218.376 92.943 C 218.376 93.103,218.707 93.572,219.110 93.986 C 220.041 94.938,222.658 98.395,222.658 98.670 C 222.658 98.785,223.501 99.959,224.532 101.280 C 225.562 102.601,226.581 103.998,226.797 104.384 C 227.409 105.479,228.717 105.966,231.062 105.972 C 232.249 105.974,233.373 106.113,233.559 106.280 C 233.746 106.447,236.373 106.783,239.398 107.027 C 242.423 107.271,245.153 107.606,245.464 107.772 C 245.776 107.937,247.948 108.249,250.292 108.466 C 252.637 108.682,254.724 108.993,254.931 109.156 C 255.138 109.319,256.330 109.563,257.578 109.699 C 258.827 109.835,260.112 110.088,260.433 110.260 C 260.754 110.433,262.536 110.752,264.392 110.969 C 266.248 111.187,267.934 111.495,268.138 111.653 C 268.343 111.811,269.783 112.141,271.338 112.385 C 272.894 112.629,274.446 113.003,274.788 113.217 C 275.789 113.842,276.415 112.988,276.905 110.336 C 277.148 109.018,277.466 107.779,277.612 107.583 C 277.758 107.386,277.990 106.262,278.126 105.085 C 278.262 103.907,278.593 102.061,278.861 100.981 C 279.130 99.902,279.460 97.814,279.595 96.343 C 279.731 94.871,279.962 93.506,280.110 93.310 C 280.452 92.853,281.178 83.835,281.178 80.027 C 281.178 78.426,281.338 77.017,281.534 76.896 C 281.731 76.774,281.891 75.329,281.891 73.684 C 281.891 72.039,281.731 70.594,281.534 70.473 C 281.338 70.352,281.178 68.785,281.178 66.992 C 281.178 63.176,280.503 55.645,280.116 55.129 C 279.968 54.933,279.737 54.050,279.603 53.167 C 278.889 48.486,276.358 42.246,273.893 39.090 C 273.288 38.314,272.632 37.363,272.435 36.976 C 272.239 36.589,271.659 36.019,271.146 35.710 C 270.634 35.400,269.720 34.763,269.116 34.293 C 266.020 31.885,259.371 31.162,252.810 32.521 M123.818 33.284 C 123.916 33.385,124.625 33.639,125.393 33.848 C 126.162 34.058,126.643 34.092,126.464 33.923 C 126.120 33.600,123.511 32.970,123.818 33.284 M134.680 37.268 C 135.061 37.574,135.623 37.811,135.929 37.795 C 136.410 37.771,136.412 37.740,135.950 37.569 C 135.656 37.459,135.094 37.222,134.701 37.042 C 133.999 36.719,133.999 36.722,134.680 37.268 M146.110 43.371 C 146.846 43.870,147.631 44.204,147.854 44.112 C 148.112 44.006,148.086 43.935,147.782 43.918 C 147.518 43.902,146.894 43.568,146.395 43.176 C 145.896 42.783,145.327 42.462,145.130 42.462 C 144.932 42.462,145.373 42.871,146.110 43.371 M94.800 45.584 C 94.553 46.004,94.097 48.371,94.301 48.171 C 94.535 47.943,95.257 45.317,95.086 45.317 C 95.015 45.317,94.886 45.437,94.800 45.584 M93.330 50.045 C 92.960 51.264,92.870 52.079,93.123 51.923 C 93.279 51.827,93.477 51.265,93.563 50.673 C 93.722 49.592,93.582 49.215,93.330 50.045 M162.177 54.464 C 162.373 54.637,163.095 55.259,163.781 55.846 L 165.029 56.913 164.138 55.899 C 163.648 55.342,162.926 54.720,162.533 54.518 C 162.141 54.315,161.980 54.291,162.177 54.464 M91.894 56.824 C 91.625 57.654,91.507 60.287,91.750 60.026 C 91.883 59.884,92.048 59.005,92.118 58.073 C 92.244 56.387,92.169 55.974,91.894 56.824 M174.786 65.459 L 176.806 67.403 175.206 69.117 L 173.605 70.830 175.376 69.138 L 177.146 67.447 175.204 65.481 C 174.136 64.400,173.151 63.515,173.014 63.515 C 172.877 63.515,173.675 64.390,174.786 65.459 M168.226 77.163 L 166.815 78.680 168.332 77.269 C 169.742 75.957,170.012 75.647,169.742 75.647 C 169.684 75.647,169.002 76.329,168.226 77.163 M91.745 85.706 C 91.722 86.823,91.824 87.811,91.971 87.902 C 92.119 87.993,92.191 87.320,92.132 86.407 C 91.965 83.801,91.791 83.485,91.745 85.706 M161.308 85.377 C 160.292 86.629,160.252 86.735,161.073 85.995 C 161.927 85.226,162.940 83.841,162.635 83.860 C 162.579 83.864,161.982 84.546,161.308 85.377 M158.101 89.168 C 158.086 89.441,157.338 90.525,156.440 91.576 C 155.542 92.628,154.887 93.488,154.985 93.488 C 155.452 93.488,158.474 89.529,158.313 89.128 C 158.174 88.781,158.123 88.790,158.101 89.168 M93.159 96.589 C 93.144 97.412,93.258 98.163,93.413 98.259 C 93.569 98.355,93.637 97.843,93.566 97.120 C 93.371 95.146,93.191 94.911,93.159 96.589 M152.887 96.145 C 152.697 96.409,152.170 97.124,151.715 97.733 C 151.260 98.342,150.952 98.840,151.031 98.840 C 151.284 98.840,153.511 95.944,153.368 95.801 C 153.293 95.725,153.076 95.880,152.887 96.145 M94.263 101.695 C 94.252 102.186,94.376 103.229,94.538 104.014 C 94.727 104.930,94.841 105.122,94.854 104.550 C 94.865 104.059,94.741 103.015,94.579 102.230 C 94.390 101.315,94.276 101.123,94.263 101.695 M148.617 101.953 C 147.373 103.607,147.241 104.061,148.381 102.765 C 148.986 102.079,149.487 101.396,149.495 101.249 C 149.518 100.828,149.381 100.938,148.617 101.953 M142.373 106.243 C 141.097 106.313,139.940 106.483,139.802 106.620 C 139.664 106.757,140.627 106.816,141.943 106.751 C 143.259 106.686,144.488 106.485,144.674 106.305 C 144.861 106.124,144.941 106.008,144.853 106.046 C 144.764 106.083,143.649 106.172,142.373 106.243 M131.781 107.541 C 129.783 107.760,128.070 108.020,127.975 108.118 C 127.879 108.216,129.462 108.136,131.491 107.939 C 133.520 107.743,135.300 107.462,135.447 107.315 C 135.593 107.168,135.645 107.069,135.563 107.095 C 135.482 107.121,133.780 107.322,131.781 107.541 M95.556 108.855 C 95.641 109.435,95.824 109.980,95.962 110.066 C 96.100 110.151,96.144 109.746,96.058 109.165 C 95.973 108.584,95.790 108.039,95.652 107.954 C 95.514 107.868,95.471 108.274,95.556 108.855 M123.104 108.738 C 122.221 108.814,121.386 108.987,121.248 109.123 C 121.110 109.258,121.752 109.313,122.675 109.244 C 123.598 109.175,124.506 108.974,124.692 108.797 C 124.879 108.620,124.959 108.503,124.871 108.537 C 124.782 108.571,123.988 108.662,123.104 108.738 M114.005 110.164 C 113.220 110.242,112.462 110.420,112.320 110.559 C 112.178 110.697,112.740 110.751,113.569 110.677 C 114.398 110.603,115.228 110.398,115.415 110.222 C 115.601 110.046,115.682 109.929,115.593 109.962 C 115.505 109.995,114.790 110.086,114.005 110.164 M106.155 111.591 C 105.370 111.670,104.612 111.847,104.470 111.986 C 104.328 112.125,104.890 112.178,105.718 112.104 C 106.547 112.030,107.378 111.826,107.565 111.649 C 107.751 111.473,107.831 111.356,107.743 111.389 C 107.655 111.422,106.940 111.513,106.155 111.591 M97.056 112.523 C 97.941 113.529,101.564 113.714,102.500 112.801 C 102.649 112.656,101.724 112.694,100.446 112.885 C 98.246 113.213,98.068 113.186,97.142 112.370 L 96.164 111.508 97.056 112.523 M240.950 246.465 C 241.493 246.547,242.296 246.545,242.735 246.460 C 243.173 246.375,242.730 246.308,241.748 246.311 C 240.767 246.313,240.408 246.383,240.950 246.465 " stroke="none" fill="#bb3cbc" fill-rule="evenodd"></path><path id="path3" d="M286.358 132.017 C 286.060 132.347,285.816 132.875,285.816 133.192 C 285.816 133.508,285.670 133.858,285.490 133.968 C 285.311 134.079,285.055 134.851,284.921 135.684 C 284.787 136.517,284.478 137.520,284.235 137.913 C 283.992 138.305,283.594 139.427,283.351 140.406 C 283.108 141.384,282.779 142.348,282.620 142.547 C 282.461 142.745,282.213 143.470,282.070 144.157 C 281.926 144.844,281.696 145.566,281.557 145.763 C 281.419 145.959,281.088 146.842,280.821 147.725 C 280.554 148.608,280.225 149.492,280.089 149.688 C 279.954 149.884,279.650 150.687,279.413 151.472 C 279.176 152.257,278.732 153.461,278.426 154.148 C 278.120 154.835,277.637 155.959,277.352 156.646 C 277.067 157.333,276.607 158.349,276.329 158.905 C 276.052 159.461,275.825 160.058,275.825 160.232 C 275.825 160.407,275.424 161.427,274.933 162.500 C 274.442 163.573,274.041 164.564,274.041 164.703 C 274.041 164.842,273.479 166.125,272.792 167.553 C 272.105 168.981,271.543 170.331,271.543 170.553 C 271.543 170.774,271.229 171.550,270.844 172.275 C 268.649 176.417,268.648 176.427,270.473 180.110 C 271.258 181.695,271.900 183.125,271.900 183.289 C 271.900 183.452,272.401 184.630,273.014 185.905 C 273.627 187.181,274.413 188.867,274.760 189.652 C 275.107 190.437,275.729 191.820,276.143 192.724 C 276.557 193.629,276.896 194.539,276.896 194.747 C 276.896 194.955,277.117 195.580,277.387 196.135 C 278.168 197.740,278.925 199.541,279.387 200.892 C 279.622 201.579,280.018 202.542,280.269 203.033 C 280.519 203.524,280.831 204.407,280.963 204.996 C 281.095 205.584,281.421 206.548,281.688 207.136 C 282.534 209.004,282.900 209.953,283.340 211.418 C 283.576 212.203,283.896 213.008,284.052 213.207 C 284.208 213.406,284.532 214.370,284.771 215.348 C 285.010 216.327,285.324 217.288,285.470 217.484 C 285.615 217.681,285.846 218.365,285.983 219.004 C 286.294 220.460,287.197 222.302,287.599 222.302 C 288.480 222.302,291.525 221.424,291.525 221.170 C 291.525 221.007,291.765 220.874,292.058 220.874 C 292.734 220.874,297.839 219.191,299.019 218.579 C 299.509 218.325,300.393 218.009,300.981 217.877 C 301.999 217.650,303.395 217.070,305.497 216.003 C 306.018 215.738,306.644 215.522,306.888 215.522 C 307.360 215.522,308.335 215.076,315.433 211.619 C 321.018 208.898,324.912 206.784,326.381 205.675 C 327.006 205.203,327.665 204.817,327.846 204.817 C 328.028 204.817,328.912 204.255,329.811 203.568 C 330.711 202.881,331.555 202.319,331.686 202.319 C 331.818 202.319,332.693 201.677,333.631 200.892 C 334.568 200.107,335.475 199.465,335.646 199.465 C 335.817 199.465,336.157 199.144,336.402 198.751 C 336.648 198.359,337.056 198.037,337.311 198.037 C 337.902 198.037,346.833 188.811,346.833 188.201 C 346.833 188.090,347.211 187.488,347.672 186.863 C 348.133 186.238,348.867 184.924,349.303 183.943 C 349.739 182.962,350.271 181.838,350.486 181.445 C 351.189 180.157,351.288 174.015,350.626 172.688 C 350.306 172.047,350.045 171.377,350.045 171.198 C 350.045 168.509,342.980 159.984,336.307 154.620 C 335.129 153.674,334.112 152.779,334.047 152.632 C 333.982 152.484,333.741 152.357,333.512 152.349 C 333.283 152.341,332.540 151.860,331.860 151.279 C 331.181 150.698,330.418 150.223,330.165 150.223 C 329.912 150.223,329.706 150.074,329.706 149.892 C 329.706 149.710,328.863 149.131,327.832 148.606 C 324.733 147.026,322.875 146.001,321.528 145.130 C 319.948 144.109,313.503 140.946,313.002 140.946 C 312.577 140.946,310.346 139.811,310.077 139.457 C 309.977 139.326,309.415 139.103,308.828 138.963 C 308.241 138.822,307.360 138.503,306.869 138.253 C 306.378 138.002,305.415 137.606,304.728 137.373 C 304.041 137.140,303.158 136.817,302.765 136.657 C 302.373 136.496,300.847 135.932,299.376 135.402 C 297.904 134.872,296.378 134.313,295.986 134.160 C 295.593 134.006,294.790 133.719,294.202 133.522 C 293.613 133.324,292.810 133.040,292.417 132.889 C 289.594 131.810,286.897 131.422,286.358 132.017 " stroke="none" fill="#3c4ccc" fill-rule="evenodd"></path><path id="path4" d="M0.000 178.412 L 0.000 356.824 200.000 356.824 L 400.000 356.824 400.000 178.412 L 400.000 0.000 200.000 0.000 L 0.000 0.000 0.000 178.412 M268.306 17.877 C 293.149 24.160,302.223 57.374,292.811 107.583 C 292.516 109.153,291.962 111.845,291.578 113.565 C 290.750 117.275,290.176 116.707,296.878 118.801 C 353.002 136.338,379.002 167.995,359.901 195.540 C 351.702 207.362,333.688 220.892,317.675 227.255 C 316.736 227.628,313.800 228.855,311.151 229.982 C 308.501 231.108,303.042 233.119,299.019 234.450 C 294.184 236.050,291.719 237.032,291.750 237.347 C 291.775 237.609,292.222 239.670,292.743 241.927 C 297.800 263.829,298.541 290.001,294.510 304.371 C 291.629 314.639,288.615 320.812,283.795 326.317 C 266.030 346.605,229.640 336.723,191.329 301.208 L 187.297 297.470 185.263 299.455 C 159.288 324.794,127.482 339.652,107.047 335.994 C 80.565 331.252,69.960 295.724,80.513 247.101 C 82.822 236.459,82.869 237.632,80.107 236.920 C 50.811 229.378,21.390 210.186,11.332 192.059 C -3.452 165.413,23.343 134.896,75.647 118.810 C 83.431 116.416,82.763 117.046,81.874 112.935 C 81.576 111.561,80.946 108.510,80.473 106.155 C 71.592 61.959,78.496 29.822,98.951 20.140 C 117.691 11.268,149.893 23.217,179.833 50.150 C 182.223 52.300,184.796 54.591,185.549 55.241 L 186.920 56.424 191.497 52.201 C 220.008 25.901,248.928 12.977,268.306 17.877 M182.280 83.604 C 173.292 93.802,165.642 103.374,166.147 103.790 C 166.318 103.932,168.626 103.936,171.276 103.800 C 177.487 103.482,196.108 103.482,202.319 103.800 C 204.969 103.936,207.264 103.945,207.420 103.819 C 207.979 103.368,188.859 79.843,187.000 78.695 C 186.860 78.608,184.736 80.817,182.280 83.604 M171.989 119.029 C 166.601 119.270,156.432 119.923,155.164 120.109 C 153.768 120.314,154.058 119.928,146.092 132.203 C 136.931 146.320,121.017 175.792,121.656 177.457 C 124.393 184.584,140.018 212.161,149.220 226.104 L 154.201 233.653 158.189 233.879 C 176.316 234.910,188.937 235.001,206.423 234.229 C 221.148 233.579,219.177 234.195,222.320 229.260 C 223.320 227.690,225.014 225.040,226.085 223.372 C 228.109 220.221,236.519 206.198,238.069 203.390 C 246.273 188.533,251.918 177.599,251.918 176.568 C 251.918 176.192,251.298 174.728,250.541 173.313 C 249.784 171.898,248.227 168.894,247.081 166.637 C 242.631 157.869,232.820 140.790,227.520 132.582 C 226.514 131.025,224.368 127.733,222.751 125.268 C 221.133 122.802,219.762 120.647,219.705 120.478 C 219.401 119.594,183.639 118.508,171.989 119.029 M130.062 122.638 C 126.133 123.107,121.429 123.845,115.433 124.934 C 109.348 126.039,102.257 127.452,101.983 127.613 C 101.428 127.942,112.440 158.408,113.121 158.425 C 113.223 158.428,114.347 156.464,115.619 154.061 C 119.190 147.311,126.717 134.216,130.481 128.204 C 132.349 125.219,133.823 122.650,133.754 122.494 C 133.686 122.339,132.025 122.403,130.062 122.638 M239.429 122.383 C 239.429 122.504,240.176 123.799,241.088 125.262 C 245.545 132.409,252.272 143.920,255.905 150.616 C 258.128 154.714,260.107 158.066,260.303 158.066 C 260.887 158.067,266.134 144.866,269.534 134.844 C 271.330 129.550,271.810 127.743,271.419 127.743 C 271.351 127.743,269.505 127.347,267.317 126.863 C 258.899 125.001,239.429 121.874,239.429 122.383 M193.220 145.095 C 217.681 150.104,227.131 180.486,209.840 198.523 C 194.379 214.652,167.735 210.639,158.055 190.723 C 146.290 166.519,166.949 139.714,193.220 145.095 M259.188 196.699 C 256.571 201.863,249.506 214.413,244.758 222.330 C 241.827 227.216,239.429 231.311,239.429 231.430 C 239.429 232.015,265.645 227.719,271.196 226.224 L 272.517 225.868 270.459 219.892 C 267.616 211.636,267.265 210.692,264.848 204.817 C 260.035 193.119,260.595 193.922,259.188 196.699 M111.686 198.472 C 108.964 205.285,107.604 208.864,105.749 214.095 C 103.551 220.291,101.695 225.951,101.695 226.457 C 101.695 226.763,103.307 227.131,110.972 228.574 C 115.223 229.375,126.969 231.136,129.706 231.383 C 131.079 231.507,132.645 231.695,133.185 231.801 C 134.597 232.077,134.500 231.829,130.975 226.173 C 126.899 219.634,120.588 208.737,116.652 201.446 C 112.988 194.658,113.167 194.765,111.686 198.472 M196.789 249.867 C 190.901 250.023,181.520 250.055,175.942 249.937 C 165.938 249.726,165.808 249.733,166.308 250.418 C 169.662 255.013,177.257 264.312,182.516 270.263 L 187.154 275.513 189.117 273.431 C 192.861 269.460,206.324 252.747,207.793 250.248 C 208.188 249.575,208.021 249.569,196.789 249.867 " stroke="none" fill="#fbfbfb" fill-rule="evenodd"></path><path id="path5" d="M85.798 131.246 C 85.612 131.407,84.576 131.748,83.497 132.006 C 82.417 132.263,81.374 132.593,81.178 132.738 C 80.981 132.883,80.259 133.104,79.572 133.229 C 78.885 133.354,77.892 133.681,77.366 133.956 C 76.839 134.231,75.876 134.569,75.225 134.709 C 74.574 134.848,73.880 135.082,73.684 135.228 C 73.488 135.375,72.851 135.609,72.269 135.749 C 71.687 135.888,70.523 136.316,69.682 136.699 C 68.841 137.082,67.672 137.492,67.083 137.609 C 66.494 137.727,66.012 137.946,66.012 138.097 C 66.012 138.247,65.571 138.475,65.031 138.602 C 63.876 138.876,63.015 139.273,55.576 142.970 C 48.279 146.597,47.457 147.034,46.135 147.993 C 45.526 148.434,44.907 148.796,44.759 148.796 C 44.611 148.796,43.639 149.438,42.599 150.223 C 41.559 151.008,40.609 151.650,40.487 151.650 C 40.212 151.650,34.938 155.870,34.394 156.526 C 34.176 156.788,33.838 157.003,33.643 157.003 C 33.336 157.003,31.890 158.485,28.769 161.998 C 21.184 170.537,20.184 179.439,25.942 187.188 C 26.393 187.795,26.762 188.396,26.762 188.522 C 26.762 189.327,38.270 200.892,39.071 200.892 C 39.202 200.892,39.978 201.429,40.796 202.086 C 41.614 202.742,42.565 203.380,42.908 203.502 C 43.252 203.624,43.533 203.890,43.533 204.092 C 43.533 204.295,43.718 204.460,43.945 204.460 C 44.172 204.460,44.854 204.827,45.461 205.275 C 46.069 205.723,46.967 206.288,47.458 206.529 C 47.948 206.770,49.153 207.476,50.134 208.096 C 52.803 209.785,62.169 214.451,62.888 214.451 C 63.233 214.451,63.515 214.586,63.515 214.751 C 63.515 214.916,64.157 215.263,64.942 215.522 C 65.727 215.781,66.369 216.128,66.369 216.293 C 66.369 216.457,66.619 216.592,66.924 216.592 C 67.229 216.592,68.193 216.917,69.065 217.315 C 69.937 217.712,71.133 218.134,71.722 218.252 C 72.310 218.369,72.792 218.581,72.792 218.721 C 72.792 218.862,73.711 219.182,74.833 219.433 C 75.956 219.684,77.200 220.090,77.598 220.335 C 77.997 220.579,79.688 221.157,81.356 221.619 C 83.024 222.081,84.469 222.568,84.567 222.700 C 85.230 223.596,87.422 222.818,87.422 221.687 C 87.422 221.398,87.649 220.655,87.926 220.036 C 88.203 219.418,88.625 218.029,88.865 216.949 C 89.104 215.870,89.425 214.826,89.578 214.630 C 89.731 214.434,89.968 213.671,90.106 212.935 C 90.243 212.199,90.480 211.597,90.631 211.597 C 90.782 211.597,91.097 210.836,91.331 209.907 C 91.565 208.977,91.887 208.054,92.046 207.855 C 92.205 207.656,92.450 206.931,92.590 206.244 C 92.730 205.558,93.044 204.674,93.288 204.282 C 93.532 203.889,93.843 203.087,93.979 202.498 C 94.115 201.909,94.462 200.905,94.749 200.268 C 95.695 198.170,96.260 196.807,96.708 195.540 C 97.134 194.335,97.741 192.886,98.971 190.133 C 99.292 189.417,99.554 188.574,99.554 188.260 C 99.554 187.946,99.682 187.690,99.839 187.690 C 99.996 187.690,100.331 187.087,100.583 186.351 C 100.836 185.616,101.484 184.050,102.023 182.872 C 105.074 176.216,104.957 177.037,103.325 173.724 C 102.651 172.357,101.996 170.765,101.869 170.187 C 101.742 169.608,101.503 169.135,101.338 169.135 C 101.173 169.135,100.925 168.613,100.786 167.975 C 100.648 167.337,100.242 166.253,99.883 165.566 C 98.677 163.257,97.770 161.064,97.770 160.458 C 97.770 160.128,97.622 159.857,97.441 159.857 C 97.261 159.857,97.004 159.335,96.871 158.698 C 96.738 158.060,96.430 157.217,96.186 156.824 C 95.941 156.432,95.631 155.629,95.495 155.040 C 95.260 154.023,95.052 153.496,93.733 150.580 C 93.422 149.893,92.968 148.608,92.724 147.725 C 92.480 146.842,92.082 145.798,91.840 145.406 C 91.598 145.013,91.289 144.088,91.155 143.350 C 91.020 142.612,90.781 141.929,90.624 141.832 C 90.467 141.735,90.230 141.015,90.098 140.232 C 89.966 139.449,89.722 138.725,89.556 138.622 C 89.390 138.520,89.056 137.548,88.813 136.463 C 88.570 135.378,88.238 134.408,88.075 134.307 C 87.912 134.206,87.779 133.768,87.779 133.332 C 87.779 131.884,86.555 130.595,85.798 131.246 " stroke="none" fill="#0ed145" fill-rule="evenodd"></path><path id="path6" d="M96.933 241.480 C 96.828 241.650,96.631 242.663,96.495 243.731 C 96.359 244.800,96.123 245.834,95.970 246.030 C 95.817 246.227,95.491 247.752,95.245 249.420 C 94.999 251.088,94.678 252.614,94.531 252.810 C 94.384 253.006,94.065 254.853,93.823 256.913 C 93.581 258.974,93.262 260.821,93.115 261.017 C 92.968 261.213,92.730 263.140,92.587 265.299 C 92.443 267.469,92.152 269.335,91.935 269.473 C 91.381 269.825,91.371 292.292,91.924 292.987 C 92.144 293.263,92.435 294.768,92.571 296.333 C 92.707 297.897,92.951 299.342,93.112 299.544 C 93.274 299.746,93.602 301.089,93.841 302.529 C 94.081 303.970,94.500 305.575,94.772 306.098 C 95.045 306.620,95.367 307.569,95.488 308.207 C 95.609 308.845,95.834 309.367,95.987 309.367 C 96.140 309.367,96.360 309.746,96.477 310.210 C 97.141 312.857,101.721 318.088,104.550 319.429 C 105.040 319.662,105.682 320.043,105.977 320.276 C 107.805 321.723,120.597 321.813,123.640 320.400 C 124.032 320.218,125.699 319.670,127.344 319.183 C 128.989 318.695,130.514 318.168,130.734 318.010 C 130.953 317.852,131.775 317.519,132.560 317.270 C 134.818 316.555,145.502 311.108,148.439 309.175 C 149.322 308.593,150.205 308.037,150.401 307.939 C 151.404 307.438,156.989 303.568,157.367 303.113 C 157.607 302.824,157.971 302.587,158.176 302.587 C 158.381 302.587,158.803 302.347,159.114 302.053 C 160.449 300.792,164.419 297.591,164.649 297.591 C 165.379 297.591,176.628 287.130,176.628 286.451 C 176.628 286.255,174.781 284.126,172.525 281.720 C 170.268 279.315,168.421 277.222,168.421 277.070 C 168.421 276.918,167.953 276.294,167.380 275.685 C 165.426 273.604,161.641 269.102,161.641 268.859 C 161.641 268.725,160.671 267.468,159.484 266.065 C 158.298 264.662,157.054 263.155,156.719 262.715 C 156.384 262.276,155.346 260.911,154.413 259.682 C 153.479 258.454,151.752 256.207,150.577 254.689 C 149.401 253.171,148.438 251.806,148.437 251.656 C 148.435 251.506,147.781 250.620,146.982 249.688 L 145.529 247.993 142.901 247.993 C 141.456 247.993,140.189 247.855,140.085 247.688 C 139.982 247.520,138.085 247.272,135.872 247.137 C 133.658 247.002,130.562 246.667,128.992 246.392 C 127.422 246.118,124.773 245.785,123.104 245.654 C 121.436 245.523,119.911 245.299,119.715 245.156 C 119.518 245.013,117.511 244.688,115.254 244.435 C 112.997 244.181,110.990 243.860,110.794 243.722 C 110.598 243.584,108.831 243.263,106.869 243.009 C 104.906 242.754,103.140 242.427,102.944 242.282 C 102.748 242.136,101.784 241.910,100.803 241.780 C 99.822 241.650,98.592 241.459,98.071 241.357 C 97.550 241.255,97.038 241.310,96.933 241.480 " stroke="none" fill="#fff200" fill-rule="evenodd"></path><path id="path7" d="M274.755 240.823 C 274.460 240.999,272.935 241.335,271.365 241.570 C 269.795 241.805,268.350 242.115,268.153 242.260 C 267.957 242.405,266.191 242.735,264.228 242.994 C 262.266 243.253,260.419 243.587,260.125 243.736 C 259.831 243.885,257.663 244.277,255.308 244.607 C 252.953 244.936,249.500 245.430,247.636 245.704 C 245.772 245.978,241.436 246.458,238.002 246.771 C 234.567 247.083,231.479 247.486,231.138 247.666 C 230.797 247.846,229.982 247.993,229.327 247.993 C 228.223 247.993,226.583 249.144,226.583 249.919 C 226.583 250.070,225.861 251.114,224.978 252.238 C 224.095 253.362,223.372 254.459,223.372 254.676 C 223.372 254.893,223.249 255.123,223.098 255.189 C 222.845 255.299,220.693 258.127,219.447 259.989 C 218.297 261.706,214.589 266.478,212.783 268.565 C 211.738 269.773,210.883 270.878,210.883 271.020 C 210.883 271.163,209.880 272.447,208.653 273.874 C 207.426 275.301,206.102 276.897,205.709 277.421 C 205.317 277.945,203.430 280.111,201.517 282.235 C 199.603 284.359,198.037 286.241,198.037 286.418 C 198.037 287.043,209.559 297.885,210.633 298.271 C 210.853 298.350,212.084 299.293,213.367 300.365 C 214.650 301.438,216.063 302.617,216.506 302.987 C 216.949 303.356,217.421 303.657,217.554 303.657 C 217.688 303.657,218.717 304.380,219.841 305.263 C 220.965 306.146,221.995 306.869,222.131 306.869 C 222.266 306.869,222.985 307.351,223.729 307.939 C 224.472 308.528,225.189 309.010,225.322 309.010 C 225.454 309.010,226.314 309.528,227.233 310.160 C 229.095 311.443,229.638 311.741,236.355 315.165 C 238.954 316.490,241.351 317.574,241.682 317.574 C 242.013 317.574,242.284 317.715,242.284 317.888 C 242.284 318.061,243.044 318.394,243.974 318.628 C 244.903 318.862,245.827 319.184,246.026 319.343 C 246.224 319.502,246.949 319.747,247.636 319.887 C 248.323 320.027,249.688 320.407,250.669 320.731 C 254.141 321.878,264.842 321.577,267.467 320.259 C 271.604 318.182,278.310 309.436,278.325 306.097 C 278.326 305.835,278.557 305.179,278.838 304.641 C 279.119 304.102,279.460 302.898,279.595 301.964 C 279.730 301.031,279.976 300.096,280.141 299.887 C 280.307 299.678,280.623 297.911,280.843 295.962 C 281.063 294.012,281.429 292.032,281.656 291.560 C 282.223 290.385,282.234 266.865,281.668 266.153 C 281.451 265.879,281.164 264.156,281.032 262.324 C 280.899 260.491,280.619 258.163,280.409 257.150 C 280.199 256.137,279.811 254.023,279.547 252.453 C 278.923 248.750,277.800 243.324,277.516 242.640 C 277.394 242.346,277.243 241.784,277.181 241.392 C 277.057 240.606,275.666 240.280,274.755 240.823 " stroke="none" fill="#ff7f27" fill-rule="evenodd"></path></g></svg>